<?xml version="1.0" standalone="no"?>
<!DOCTYPE svg PUBLIC "-//W3C//DTD SVG 20010904//EN"
 "http://www.w3.org/TR/2001/REC-SVG-20010904/DTD/svg10.dtd">
<svg version="1.0" xmlns="http://www.w3.org/2000/svg"
 width="298.000000pt" height="298.000000pt" viewBox="0 0 298.000000 298.000000"
 preserveAspectRatio="xMidYMid meet">
<metadata>
Created by potrace 1.11, written by Peter Selinger 2001-2013
</metadata>
<g transform="translate(0.000000,298.000000) scale(0.100000,-0.100000)"
fill="#000000" stroke="none">
<path d="M2288 2941 c-14 -8 -33 -26 -42 -41 -21 -34 -116 -136 -116 -124 0 5
-4 4 -8 -2 -18 -28 -114 -66 -167 -68 -30 0 -55 -4 -55 -7 0 -3 -10 -5 -22 -4
-53 7 -105 15 -133 21 -16 3 -36 7 -42 7 -7 0 -13 5 -13 10 0 6 -2 8 -5 5 -3
-3 -68 16 -145 42 -76 26 -141 45 -144 42 -3 -3 -6 1 -6 8 0 7 -3 11 -6 7 -4
-3 -22 0 -40 8 -19 8 -34 11 -34 8 0 -3 -7 0 -15 7 -8 6 -19 9 -24 6 -5 -4
-12 -2 -16 4 -4 6 -10 8 -15 5 -5 -3 -11 -1 -15 5 -4 6 -11 8 -16 5 -5 -4 -15
-3 -21 2 -7 4 -26 8 -43 8 -16 0 -34 3 -40 6 -24 14 -182 0 -240 -21 -33 -11
-66 -22 -72 -22 -7 -1 -13 -5 -13 -10 0 -4 -5 -8 -11 -8 -22 0 -128 -81 -176
-135 -113 -125 -152 -281 -107 -419 22 -64 93 -137 155 -158 67 -23 242 -15
275 13 6 5 14 6 17 2 4 -3 7 -1 7 5 0 7 7 12 15 12 8 0 15 5 15 10 0 6 6 10
13 10 14 0 116 102 141 141 34 54 0 35 -73 -40 -65 -68 -117 -107 -156 -118
-61 -16 -143 -20 -200 -10 -71 12 -149 83 -177 160 -60 164 64 383 237 422 38
9 139 9 185 0 62 -11 309 -104 336 -126 6 -5 14 -6 18 -2 4 4 10 3 14 -2 11
-15 132 -55 188 -62 100 -12 249 4 282 30 6 5 12 6 12 2 0 -4 7 -2 15 5 8 7
15 9 15 5 0 -4 7 -2 15 5 8 7 15 10 15 7 0 -3 44 17 98 43 80 41 92 45 67 22
-32 -28 -102 -85 -137 -112 -11 -8 -28 -22 -37 -30 -9 -8 -39 -33 -66 -55 -28
-21 -53 -44 -57 -50 -4 -5 -8 -6 -8 -2 0 4 -10 -3 -22 -16 -13 -13 -115 -100
-228 -193 -113 -93 -211 -174 -218 -181 -7 -7 -34 -29 -60 -50 -26 -21 -54
-45 -62 -53 -8 -9 -28 -26 -44 -38 -16 -12 -56 -46 -90 -76 -66 -58 -226 -197
-265 -231 -13 -11 -34 -29 -46 -40 -13 -11 -53 -47 -91 -80 -82 -73 -96 -85
-209 -190 -132 -122 -159 -145 -168 -145 -4 0 -17 -9 -29 -20 -12 -10 -25 -17
-30 -14 -4 3 -8 1 -8 -4 0 -4 -17 -18 -37 -30 -54 -31 -81 -56 -92 -84 -12
-31 -3 -45 30 -51 28 -5 58 18 131 101 85 95 185 142 298 142 88 -1 100 -2
100 -11 0 -5 6 -6 13 -3 8 3 85 -31 173 -74 87 -43 174 -85 192 -93 22 -10 30
-19 26 -29 -77 -181 -91 -419 -35 -582 32 -92 64 -141 141 -215 44 -43 147
-100 195 -109 14 -2 36 -9 49 -14 27 -10 326 -7 364 4 12 3 32 8 45 11 23 5
78 18 87 20 13 4 49 18 95 37 28 11 56 20 63 21 6 0 12 3 12 6 0 4 22 17 49
30 27 12 59 32 70 42 11 10 24 19 29 19 5 0 43 33 83 74 129 128 179 236 184
396 3 77 0 105 -16 148 -35 89 -126 167 -222 188 -31 7 -135 7 -175 0 -90 -17
-188 -74 -284 -167 -61 -60 -158 -182 -158 -199 0 -24 35 3 79 61 27 35 71 85
97 111 57 54 153 120 166 112 4 -3 8 -1 8 4 0 9 8 11 73 12 58 1 85 -6 123
-32 61 -42 93 -134 89 -259 -7 -225 -157 -446 -381 -563 -28 -15 -61 -28 -73
-31 -11 -2 -25 -6 -30 -10 -26 -15 -149 -23 -221 -14 -138 19 -257 160 -285
340 -8 50 -8 211 0 249 2 13 7 41 10 60 6 40 36 148 54 193 8 21 17 27 43 28
18 1 36 1 41 0 4 0 7 3 7 7 0 4 9 8 19 9 26 2 124 44 133 57 4 6 8 7 8 3 0 -4
15 3 33 17 19 15 37 26 41 26 6 0 54 34 140 100 73 55 350 349 390 413 17 27
21 21 23 -33 3 -109 87 -201 207 -226 34 -7 158 -6 196 1 19 4 40 8 45 9 6 1
16 5 23 10 7 4 16 6 18 3 7 -7 154 66 184 92 84 72 142 152 156 213 16 73 16
142 -1 203 -9 36 -21 65 -26 65 -5 0 -9 7 -9 15 0 22 -82 86 -145 112 -92 39
-238 48 -385 25 -47 -8 -91 -14 -97 -15 -7 0 -13 -3 -13 -6 0 -3 -10 -7 -22
-7 -26 -2 -31 -4 -113 -29 -33 -11 -63 -24 -67 -30 -4 -5 -8 -6 -8 -1 0 5 -6
3 -13 -3 -8 -6 -17 -8 -20 -4 -4 3 -7 2 -7 -4 0 -5 -6 -10 -13 -10 -13 0 -208
-93 -217 -103 -3 -4 -13 -9 -23 -13 -18 -7 -184 -115 -203 -132 -6 -5 -23 -19
-39 -30 -122 -87 -273 -237 -380 -377 -40 -53 -76 -94 -79 -91 -7 8 -196 72
-196 67 0 -3 -9 0 -19 6 -34 18 -211 32 -211 17 0 -5 -4 -6 -8 -3 -9 5 -97
-11 -127 -24 -11 -4 -38 -15 -60 -23 -22 -8 -62 -25 -90 -38 -61 -27 -88 -34
-64 -16 28 22 114 92 119 98 3 3 34 28 70 55 36 27 76 58 89 69 13 11 43 36
66 55 23 19 98 81 166 136 68 56 134 110 145 120 12 11 44 37 70 59 78 65 137
115 170 144 17 14 57 49 89 76 32 28 81 70 109 95 28 24 60 51 70 60 32 25
216 186 286 250 15 14 56 50 91 80 34 30 78 70 97 88 19 17 39 32 44 32 5 0 6
5 3 10 -3 6 -2 10 3 10 5 0 28 18 53 40 24 22 47 40 51 40 4 0 13 6 20 13 7 7
51 36 98 65 47 29 94 58 105 65 50 31 66 69 43 100 -18 24 -48 27 -80 8z m367
-935 c11 -2 21 -5 23 -5 1 -1 5 -1 10 -2 11 -2 64 -40 85 -61 58 -59 48 -202
-25 -341 -27 -49 -109 -144 -160 -183 -18 -14 -77 -45 -80 -43 -2 2 -14 -3
-27 -11 -29 -15 -129 -29 -151 -20 -3 1 -16 4 -30 6 -35 6 -92 55 -112 95 -22
44 -19 161 5 207 12 21 14 32 6 32 -12 0 -23 -12 -74 -80 -89 -120 -261 -305
-371 -400 -78 -67 -203 -110 -320 -110 -84 0 -88 4 -57 59 34 59 149 228 178
261 149 169 223 241 341 331 86 65 104 78 152 106 139 82 253 131 342 147 8 2
22 6 30 9 34 13 186 15 235 3z"/>
</g>
</svg>
